<svg width="52" height="52" fill="none" xmlns="http://www.w3.org/2000/svg"><g clip-path="url(#a)" fill="#fff" fill-opacity=".9"><path d="M36.063 16.822a.466.466 0 0 0-.465-.464l-3.83.017-5.769 6.878-5.763-6.872-3.836-.017a.462.462 0 0 0-.464.464c0 .11.04.215.11.302l7.55 8.995-7.55 8.99a.466.466 0 0 0 .354.766l3.836-.017L26 28.987l5.763 6.87 3.83.018a.462.462 0 0 0 .465-.464c0-.11-.04-.215-.11-.302l-7.54-8.99 7.551-8.995a.465.465 0 0 0 .105-.302Z"/><path d="M26 0C11.642 0 0 11.642 0 26s11.642 26 26 26 26-11.642 26-26S40.358 0 26 0Zm0 47.59C14.08 47.59 4.41 37.92 4.41 26S14.08 4.41 26 4.41 47.59 14.08 47.59 26 37.92 47.59 26 47.59Z"/></g><defs><clipPath id="a"><path fill="#fff" d="M0 0h52v52H0z"/></clipPath></defs></svg>