<svg width="46" height="46" viewBox="0 0 46 46" fill="none" xmlns="http://www.w3.org/2000/svg">
<path d="M43.4131 40.5901L30.0802 27.2573C32.1492 24.5825 33.2684 21.3122 33.2684 17.8725C33.2684 13.7551 31.6615 9.89436 28.7557 6.98343C25.8499 4.07249 21.9789 2.4707 17.8666 2.4707C13.7544 2.4707 9.88337 4.07762 6.97757 6.98343C4.06663 9.88923 2.46484 13.7551 2.46484 17.8725C2.46484 21.9848 4.07176 25.8557 6.97757 28.7616C9.88337 31.6725 13.7492 33.2743 17.8666 33.2743C21.3064 33.2743 24.5715 32.1551 27.2463 30.0912L40.5791 43.4189C40.6182 43.458 40.6646 43.4891 40.7157 43.5102C40.7668 43.5314 40.8216 43.5423 40.8769 43.5423C40.9322 43.5423 40.987 43.5314 41.0381 43.5102C41.0891 43.4891 41.1356 43.458 41.1747 43.4189L43.4131 41.1857C43.4522 41.1466 43.4832 41.1001 43.5044 41.0491C43.5256 40.998 43.5365 40.9432 43.5365 40.8879C43.5365 40.8326 43.5256 40.7778 43.5044 40.7267C43.4832 40.6756 43.4522 40.6292 43.4131 40.5901ZM25.9988 26.0046C23.822 28.1763 20.9367 29.3725 17.8666 29.3725C14.7965 29.3725 11.9113 28.1763 9.73449 26.0046C7.56284 23.8278 6.36663 20.9426 6.36663 17.8725C6.36663 14.8024 7.56284 11.912 9.73449 9.74035C11.9113 7.56869 14.7965 6.37249 17.8666 6.37249C20.9367 6.37249 23.8271 7.56356 25.9988 9.74035C28.1704 11.9171 29.3666 14.8024 29.3666 17.8725C29.3666 20.9426 28.1704 23.833 25.9988 26.0046Z" fill="white"/>
</svg>
